<svg width="240" height="240" viewBox="0 0 240 240" fill="none" xmlns="http://www.w3.org/2000/svg">
<path d="M45.6162 6H194.384C216.138 6.00013 234 23.8616 234 45.6162V194.589C234 216.308 216.174 234 194.384 234H45.6162C23.8262 234 6 216.308 6 194.589V45.6162C6.00013 23.8616 23.8616 6.00013 45.6162 6Z" fill="#98EFE4" stroke="#98EFE4" stroke-width="12"/>
<path fill-rule="evenodd" clip-rule="evenodd" d="M130.89 123.904V128.425C130.068 129.041 129.246 129.452 128.218 130.069C125.547 131.507 121.643 132.329 117.534 132.329C113.013 132.329 109.109 131.302 106.232 129.863C105.41 129.247 104.794 128.836 104.177 128.219V123.699C104.588 123.699 105.205 123.493 105.616 123.082C111.575 120.617 114.862 118.973 116.917 117.329C117.123 117.329 117.123 117.123 117.328 117.123C117.534 117.123 117.534 117.329 117.739 117.329C119.588 118.973 123.081 120.617 128.835 123.082C129.451 123.493 130.273 123.699 130.89 123.904ZM93.287 125.754V125.137V124.932V124.11V123.904C92.2596 123.493 91.4377 122.877 90.6157 122.26C89.3829 121.233 88.3555 119.795 87.739 118.151C86.3007 114.658 85.8897 109.726 87.1226 103.767V103.356C88.7664 95.7536 90.4103 87.5344 95.9582 80.7536H95.5472H92.0541C90.4103 80.7536 89.1774 80.3426 88.3555 79.5207C87.5335 78.4933 86.9171 77.0549 86.9171 75.0002C86.7116 73.1508 86.9171 71.3015 86.9171 69.4522C86.9171 67.8084 87.3281 66.37 88.15 65.5481C89.1774 64.7262 90.4103 64.3152 92.2596 64.1097C99.0404 64.1097 106.232 64.1097 113.013 64.1097C113.218 64.1097 113.629 64.5207 114.04 65.1371C114.246 65.3426 114.451 65.5481 114.657 65.7536V71.3015H120.41V65.5481L120.616 65.1371C121.232 64.5207 121.643 64.1097 121.643 64.1097C128.629 64.1097 135.616 64.1097 142.397 64.1097C144.246 64.3152 145.684 64.7262 146.712 65.5481C147.534 66.5755 147.945 67.8084 147.945 69.4522C147.945 71.3015 148.15 72.9454 147.945 74.7947C147.945 76.8495 147.328 78.4933 146.506 79.5207C145.684 80.3426 144.451 80.7536 142.602 80.7536H139.314H138.492C144.04 87.1234 145.684 95.1371 147.328 102.534C148.766 109.11 148.561 114.452 146.917 118.151C146.095 119.795 145.273 121.233 144.04 122.26C143.218 122.877 142.397 123.288 141.575 123.699V124.11V124.726V125.137C141.575 144.658 141.369 164.384 139.314 183.904C137.26 205.069 130.89 208.767 130.89 189.658V135C127.191 136.849 122.671 137.877 117.534 137.877C112.397 137.877 107.671 136.849 104.177 135V189.658C104.177 208.767 97.8075 205.069 95.5472 183.904C93.6979 164.589 93.4924 145.069 93.287 125.754ZM104.588 80.5481C104.794 80.5481 105.205 80.5481 105.205 80.3426C109.931 79.3152 111.986 77.6714 113.424 76.4385C114.246 75.6166 115.068 75.0002 116.301 74.3837H118.561C119.588 75.0002 120.41 75.6166 121.438 76.4385C122.876 77.6714 124.931 79.3152 129.451 80.3426C129.657 80.5481 129.657 80.5481 129.862 80.5481C137.671 86.096 139.931 94.5207 141.575 102.534C143.013 108.493 143.013 113.014 141.78 115.891C141.369 116.712 140.753 117.534 140.136 117.945C139.725 118.562 138.903 118.767 138.287 118.973C136.438 119.589 133.972 119.178 131.095 117.945C125.753 115.685 122.876 114.041 121.232 112.808C120.41 112.192 120.205 111.781 120.205 111.37V93.0823H114.451V111.37C114.451 111.781 114.246 112.192 113.424 112.808C111.78 114.041 108.903 115.685 103.561 117.945C100.684 119.178 98.2185 119.589 96.3692 118.973C95.5472 118.767 94.9308 118.562 94.3144 117.945C93.6979 117.534 93.287 116.712 92.876 115.891C91.6431 113.014 91.6431 108.493 93.0815 102.534C94.7253 94.5207 96.9856 86.096 104.588 80.5481Z" fill="#98EFE4"/>
<g clip-path="url(#clip0_2249_1479)">
<path d="M143.636 77.4551H96.3636V68H143.636V77.4551Z" fill="#0C0F1D"/>
<path d="M143.636 172.001H96.3636V162.545H143.636V172.001Z" fill="#0C0F1D"/>
<path d="M172 124.727H68V115.273H172V124.727Z" fill="#0C0F1D"/>
<path d="M77.4546 96.3636V143.636H68V96.3636H77.4546Z" fill="#0C0F1D"/>
<path d="M172 96.3636V143.636H162.545V96.3636H172Z" fill="#0C0F1D"/>
<path d="M86.9091 96.3636H77.4546V86.9091H86.9091V96.3636Z" fill="#0C0F1D"/>
<path d="M86.9091 153.091H77.4546V143.636H86.9091V153.091Z" fill="#0C0F1D"/>
<path d="M96.3636 162.545H86.9091V153.091H96.3636V162.545Z" fill="#0C0F1D"/>
<path d="M115.273 162.545H105.818V153.091H115.273V162.545Z" fill="#0C0F1D"/>
<path d="M134.182 162.545H124.727V153.091H134.182V162.545Z" fill="#0C0F1D"/>
<path d="M153.091 162.545H143.636V153.091H153.091V162.545Z" fill="#0C0F1D"/>
<path d="M96.3636 86.9091H86.9091V77.4546H96.3636V86.9091Z" fill="#0C0F1D"/>
<path d="M115.273 86.9091H105.818V77.4546H115.273V86.9091Z" fill="#0C0F1D"/>
<path d="M134.182 86.9091H124.727V77.4546H134.182V86.9091Z" fill="#0C0F1D"/>
<path d="M153.091 86.9091H143.636V77.4546H153.091V86.9091Z" fill="#0C0F1D"/>
<path d="M105.818 96.3636H96.3636V86.9091H105.818V96.3636Z" fill="#0C0F1D"/>
<path d="M105.818 153.091H96.3636V143.636H105.818V153.091Z" fill="#0C0F1D"/>
<path d="M143.636 96.3636H134.182V86.9091H143.636V96.3636Z" fill="#0C0F1D"/>
<path d="M143.636 153.091H134.182V143.636H143.636V153.091Z" fill="#0C0F1D"/>
<path d="M162.545 96.3636H153.091V86.9091H162.545V96.3636Z" fill="#0C0F1D"/>
<path d="M162.545 153.091H153.091V143.636H162.545V153.091Z" fill="#0C0F1D"/>
<path d="M124.727 115.273H115.273V86.9091H124.727V115.273Z" fill="#0C0F1D"/>
<path d="M124.727 153.091H115.273V124.727H124.727V153.091Z" fill="#0C0F1D"/>
<path d="M153.091 115.273H143.636V96.3636H153.091V115.273Z" fill="#0C0F1D"/>
<path d="M153.091 143.636H143.636V124.727H153.091V143.636Z" fill="#0C0F1D"/>
<path d="M96.3636 115.273H86.9091V96.3636H96.3636V115.273Z" fill="#0C0F1D"/>
<path d="M96.3636 143.636H86.9091V124.727H96.3636V143.636Z" fill="#0C0F1D"/>
</g>
<defs>
<clipPath id="clip0_2249_1479">
<rect width="104" height="104" fill="white" transform="translate(68 68)"/>
</clipPath>
</defs>
</svg>
